<svg xmlns="http://www.w3.org/2000/svg" width="82.222" height="58.708" viewBox="0 0 82.222 58.708">
  <g id="Group_3401" data-name="Group 3401" transform="translate(3961.552 -14315.152)">
    <path id="Stroke_3" data-name="Stroke 3" d="M7.661,0c8.765,3.626,7.619,7.948,7.619,7.948a3.346,3.346,0,0,1-3.1,3.549H3.15A3.35,3.35,0,0,1,.05,7.948S-1.1,3.626,7.661,0Z" transform="translate(-3928.425 14319.707)" fill="#cfe8ff" stroke="#231f20" stroke-miterlimit="10" stroke-width="1"/>
    <g id="Group_8" data-name="Group 8" transform="translate(-3920.765 14315.652)">
      <path id="Fill_5" data-name="Fill 5" d="M0,3.742V0" fill="#fff"/>
      <path id="Stroke_7" data-name="Stroke 7" d="M0,3.742V0" fill="none" stroke="#231f20" stroke-linecap="round" stroke-linejoin="round" stroke-miterlimit="10" stroke-width="1"/>
    </g>
    <path id="Stroke_11" data-name="Stroke 11" d="M0,5.749H18.523V0H0Z" transform="translate(-3929.702 14331.204)" fill="#fff" stroke="#231f20" stroke-miterlimit="10" stroke-width="1"/>
    <path id="Stroke_13" data-name="Stroke 13" d="M0,22.994H5.749V0H0Z" transform="translate(-3937.367 14345.895)" fill="#fff" stroke="#231f20" stroke-miterlimit="10" stroke-width="1"/>
    <path id="Stroke_15" data-name="Stroke 15" d="M4.469,0C9.583,2.013,8.913,4.413,8.913,4.413A1.9,1.9,0,0,1,7.1,6.387H1.836A1.9,1.9,0,0,1,.029,4.413S-.644,2.013,4.469,0Z" transform="translate(-3938.645 14339.508)" fill="none" stroke="#231f20" stroke-miterlimit="10" stroke-width="1"/>
    <path id="Stroke_17" data-name="Stroke 17" d="M0,2.335V0" transform="translate(-3934.083 14337.11)" fill="none" stroke="#231f20" stroke-linecap="round" stroke-linejoin="round" stroke-miterlimit="10" stroke-width="1"/>
    <path id="Stroke_20" data-name="Stroke 20" d="M0,22.994H5.749V0H0Z" transform="translate(-3909.902 14345.895)" fill="#fff" stroke="#231f20" stroke-miterlimit="10" stroke-width="1"/>
    <path id="Stroke_22" data-name="Stroke 22" d="M4.471,0C9.584,2.013,8.913,4.413,8.913,4.413A1.9,1.9,0,0,1,7.1,6.387H1.838a1.449,1.449,0,0,1-.227-.017A1.921,1.921,0,0,1,.029,4.413S-.345,3.071,1.606,1.549A11.5,11.5,0,0,1,4.471,0Z" transform="translate(-3911.179 14339.508)" fill="#cfe8ff" stroke="#231f20" stroke-miterlimit="10" stroke-width="1"/>
    <path id="Stroke_24" data-name="Stroke 24" d="M0,2.335V0" transform="translate(-3906.767 14337.11)" fill="none" stroke="#231f20" stroke-linecap="round" stroke-linejoin="round" stroke-miterlimit="10" stroke-width="1"/>
    <path id="Stroke_27" data-name="Stroke 27" d="M21.292,0H0" transform="translate(-3931.655 14349.311)" fill="none" stroke="#231f20" stroke-miterlimit="10" stroke-width="1"/>
    <path id="Stroke_30" data-name="Stroke 30" d="M21.292,0H0" transform="translate(-3931.655 14349.311)" fill="none" stroke="#231f20" stroke-miterlimit="10" stroke-width="1"/>
    <path id="Stroke_33" data-name="Stroke 33" d="M0,4.471H32.575V0H0Z" transform="translate(-3936.728 14368.89)" fill="#fff" stroke="#231f20" stroke-miterlimit="10" stroke-width="1"/>
    <path id="Stroke_35" data-name="Stroke 35" d="M0,3.183C0,.466,2.236,0,4.993,0H16.72c2.76,0,5,.466,5,3.183v.649H0Z" transform="translate(-3931.618 14336.952)" fill="#cfe8ff" stroke="#231f20" stroke-miterlimit="10" stroke-width="1"/>
    <path id="Stroke_37" data-name="Stroke 37" d="M4.469,0A11.554,11.554,0,0,1,7.322,1.538C9.29,3.063,8.913,4.413,8.913,4.413A1.922,1.922,0,0,1,7.332,6.371a1.512,1.512,0,0,1-.232.017H1.836A1.9,1.9,0,0,1,.029,4.413S-.644,2.013,4.469,0Z" transform="translate(-3938.645 14339.508)" fill="#cfe8ff" stroke="#231f20" stroke-miterlimit="10" stroke-width="1"/>
    <path id="Stroke_39" data-name="Stroke 39" d="M0,5.1A1.857,1.857,0,0,0,1.548,3.224S1.925,1.927,0,.464V0H21.717V.476c-1.906,1.459-1.541,2.748-1.541,2.748A1.852,1.852,0,0,0,21.717,5.1V8.3H0V5.1Z" transform="translate(-3931.618 14340.785)" fill="#fff" stroke="#231f20" stroke-miterlimit="10" stroke-width="1"/>
    <path id="Stroke_41" data-name="Stroke 41" d="M0,19.8H21.717V0H0Z" transform="translate(-3931.618 14349.089)" fill="none" stroke="#231f20" stroke-miterlimit="10" stroke-width="1"/>
    <g id="Rectangle" transform="translate(-3931.425 14349.21)" fill="#cfe8ff" stroke="#000" stroke-miterlimit="10" stroke-width="1">
      <rect width="7.632" height="19.558" stroke="none"/>
      <rect x="0.5" y="0.5" width="6.632" height="18.558" fill="none"/>
    </g>
    <g id="Rectangle_Copy" data-name="Rectangle Copy" transform="translate(-3924.746 14349.21)" fill="#cfe8ff" stroke="#000" stroke-miterlimit="10" stroke-width="1">
      <rect width="7.632" height="19.558" stroke="none"/>
      <rect x="0.5" y="0.5" width="6.632" height="18.558" fill="none"/>
    </g>
    <g id="Rectangle_Copy_2" data-name="Rectangle Copy 2" transform="translate(-3917.591 14349.21)" fill="#cfe8ff" stroke="#000" stroke-miterlimit="10" stroke-width="1">
      <rect width="7.632" height="19.558" stroke="none"/>
      <rect x="0.5" y="0.5" width="6.632" height="18.558" fill="none"/>
    </g>
    <path id="Stroke_43" data-name="Stroke 43" d="M0,3.832H21.717V0H0Z" transform="translate(-3931.618 14365.057)" fill="#7bbffe" stroke="#231f20" stroke-miterlimit="10" stroke-width="1"/>
    <path id="Stroke_51" data-name="Stroke 51" d="M0,0V3.008" transform="translate(-3925.191 14343.792)" fill="none" stroke="#231f20" stroke-miterlimit="10" stroke-width="1"/>
    <path id="Stroke_54" data-name="Stroke 54" d="M0,0V3.008" transform="translate(-3920.824 14343.792)" fill="none" stroke="#231f20" stroke-miterlimit="10" stroke-width="1"/>
    <path id="Stroke_57" data-name="Stroke 57" d="M0,0V3.008" transform="translate(-3915.817 14343.792)" fill="none" stroke="#231f20" stroke-miterlimit="10" stroke-width="1"/>
    <path id="Stroke_60" data-name="Stroke 60" d="M16.937,0H0" transform="translate(-3904.153 14354.198)" fill="none" stroke="#231f20" stroke-miterlimit="10" stroke-width="1"/>
    <path id="Stroke_63" data-name="Stroke 63" d="M0,5.11H16.607V0H0Z" transform="translate(-3904.153 14349.089)" fill="none" stroke="#231f20" stroke-miterlimit="10" stroke-width="1"/>
    <path id="Stroke_65" data-name="Stroke 65" d="M0,14.691H16.607V0H0Z" transform="translate(-3904.153 14354.198)" fill="#cfe8ff" stroke="#231f20" stroke-miterlimit="10" stroke-width="1"/>
    <path id="Stroke_67" data-name="Stroke 67" d="M0,22.994H5.749V0H0Z" transform="translate(-3887.546 14345.895)" fill="#fff" stroke="#231f20" stroke-miterlimit="10" stroke-width="1"/>
    <path id="Stroke_69" data-name="Stroke 69" d="M4.471,0C-.642,2.013.029,4.413.029,4.413A1.894,1.894,0,0,0,1.84,6.387H7.1A1.9,1.9,0,0,0,8.913,4.413S9.584,2.013,4.471,0Z" transform="translate(-3888.823 14339.508)" fill="#cfe8ff" stroke="#231f20" stroke-miterlimit="10" stroke-width="1"/>
    <path id="Stroke_71" data-name="Stroke 71" d="M0,2.335V0" transform="translate(-3884.557 14337.11)" fill="none" stroke="#231f20" stroke-linecap="round" stroke-linejoin="round" stroke-miterlimit="10" stroke-width="1"/>
    <path id="Stroke_74" data-name="Stroke 74" d="M.684,0H2.507a1.721,1.721,0,0,1,.687,1.348V3.194H0V1.348A1.724,1.724,0,0,1,.684,0Z" transform="translate(-3893.933 14358.03)" fill="#7bbffe" stroke="#231f20" stroke-miterlimit="10" stroke-width="1"/>
    <path id="Stroke_76" data-name="Stroke 76" d="M0,3.832H3.194V0H0Z" transform="translate(-3893.933 14365.057)" fill="#7bbffe" stroke="#231f20" stroke-miterlimit="10" stroke-width="1"/>
    <path id="Stroke_78" data-name="Stroke 78" d="M.684,0H2.508a1.714,1.714,0,0,1,.685,1.348V3.194H0V1.348A1.715,1.715,0,0,1,.684,0Z" transform="translate(-3900.959 14358.03)" fill="#7bbffe" stroke="#231f20" stroke-miterlimit="10" stroke-width="1"/>
    <path id="Stroke_80" data-name="Stroke 80" d="M0,3.832H3.194V0H0Z" transform="translate(-3900.959 14365.057)" fill="#7bbffe" stroke="#231f20" stroke-miterlimit="10" stroke-width="1"/>
    <path id="Stroke_82" data-name="Stroke 82" d="M0,5.11H5.749V0H0Z" transform="translate(-3904.153 14349.089)" fill="#cfe8ff" stroke="#231f20" stroke-miterlimit="10" stroke-width="1"/>
    <path id="Stroke_84" data-name="Stroke 84" d="M0,5.11H5.11V0H0Z" transform="translate(-3898.404 14349.089)" fill="#cfe8ff" stroke="#231f20" stroke-miterlimit="10" stroke-width="1"/>
    <path id="Stroke_86" data-name="Stroke 86" d="M0,5.11H5.749V0H0Z" transform="translate(-3893.295 14349.089)" fill="#cfe8ff" stroke="#231f20" stroke-miterlimit="10" stroke-width="1"/>
    <path id="Stroke_88" data-name="Stroke 88" d="M0,0H16.937" transform="translate(-3953.974 14354.198)" fill="none" stroke="#231f20" stroke-miterlimit="10" stroke-width="1"/>
    <path id="Stroke_91" data-name="Stroke 91" d="M0,14.691H16.607V0H0Z" transform="translate(-3953.974 14354.198)" fill="#cfe8ff" stroke="#231f20" stroke-miterlimit="10" stroke-width="1"/>
    <path id="Stroke_93" data-name="Stroke 93" d="M0,5.11H16.607V0H0Z" transform="translate(-3953.974 14349.089)" fill="none" stroke="#231f20" stroke-miterlimit="10" stroke-width="1"/>
    <path id="Stroke_95" data-name="Stroke 95" d="M0,22.994H5.749V0H0Z" transform="translate(-3959.723 14345.895)" fill="#fff" stroke="#231f20" stroke-miterlimit="10" stroke-width="1"/>
    <path id="Stroke_97" data-name="Stroke 97" d="M4.472,0C9.584,2.013,8.913,4.413,8.913,4.413A1.894,1.894,0,0,1,7.1,6.387H1.837A1.9,1.9,0,0,1,.029,4.413S-.64,2.013,4.472,0Z" transform="translate(-3961 14339.508)" fill="#cfe8ff" stroke="#231f20" stroke-miterlimit="10" stroke-width="1"/>
    <path id="Stroke_99" data-name="Stroke 99" d="M0,2.335V0" transform="translate(-3956.96 14337.11)" fill="none" stroke="#231f20" stroke-linecap="round" stroke-linejoin="round" stroke-miterlimit="10" stroke-width="1"/>
    <path id="Stroke_102" data-name="Stroke 102" d="M2.512,0H.685A1.714,1.714,0,0,0,0,1.348V3.194H3.193V1.348A1.717,1.717,0,0,0,2.512,0Z" transform="translate(-3950.78 14358.03)" fill="#7bbffe" stroke="#231f20" stroke-miterlimit="10" stroke-width="1"/>
    <path id="Stroke_104" data-name="Stroke 104" d="M0,3.832H3.194V0H0Z" transform="translate(-3950.78 14365.057)" fill="#7bbffe" stroke="#231f20" stroke-miterlimit="10" stroke-width="1"/>
    <path id="Stroke_106" data-name="Stroke 106" d="M2.509,0H.685A1.714,1.714,0,0,0,0,1.348V3.194H3.193V1.348A1.715,1.715,0,0,0,2.509,0Z" transform="translate(-3943.754 14358.03)" fill="#7bbffe" stroke="#231f20" stroke-miterlimit="10" stroke-width="1"/>
    <path id="Stroke_108" data-name="Stroke 108" d="M0,3.832H3.194V0H0Z" transform="translate(-3943.754 14365.057)" fill="#7bbffe" stroke="#231f20" stroke-miterlimit="10" stroke-width="1"/>
    <path id="Stroke_110" data-name="Stroke 110" d="M0,5.11H5.749V0H0Z" transform="translate(-3953.974 14349.089)" fill="#cfe8ff" stroke="#231f20" stroke-miterlimit="10" stroke-width="1"/>
    <path id="Stroke_112" data-name="Stroke 112" d="M0,5.11H5.11V0H0Z" transform="translate(-3948.225 14349.089)" fill="#cfe8ff" stroke="#231f20" stroke-miterlimit="10" stroke-width="1"/>
    <path id="Stroke_114" data-name="Stroke 114" d="M0,5.11H5.749V0H0Z" transform="translate(-3943.115 14349.089)" fill="#cfe8ff" stroke="#231f20" stroke-miterlimit="10" stroke-width="1"/>
  </g>
</svg>
