<svg xmlns="http://www.w3.org/2000/svg" width="75.987" height="58.208" viewBox="0 0 75.987 58.208">
  <g id="Group_3404" data-name="Group 3404" transform="translate(3617.5 -14314.868)">
    <path id="Fill_1" data-name="Fill 1" d="M0,20.535H10.58V0H0Z" transform="translate(-3617 14352.542)" fill="#fff"/>
    <path id="Stroke_2" data-name="Stroke 2" d="M0,19.8H10.58V0H0Z" transform="translate(-3617 14352.542)" fill="#cfe8ff" stroke="#231f20" stroke-linecap="round" stroke-linejoin="round" stroke-miterlimit="10" stroke-width="1"/>
    <path id="Fill_4" data-name="Fill 4" d="M3.253,0,0,8.8H10.58L7.329,0Z" transform="translate(-3617 14343.74)" fill="#ecefd6"/>
    <path id="Stroke_5" data-name="Stroke 5" d="M10.58,8.8H0L3.253,0H7.329Z" transform="translate(-3617 14343.74)" fill="#0d83ee" stroke="#231f20" stroke-linecap="round" stroke-linejoin="round" stroke-miterlimit="10" stroke-width="1"/>
    <path id="Fill_7" data-name="Fill 7" d="M0,2.934H3.967V.733L3.851,0H0Z" transform="translate(-3613.694 14340.808)" fill="#0d83ee"/>
    <path id="Stroke_8" data-name="Stroke 8" d="M0,2.934H3.967V0H0Z" transform="translate(-3613.694 14340.808)" fill="none" stroke="#231f20" stroke-linecap="round" stroke-linejoin="round" stroke-miterlimit="10" stroke-width="1"/>
    <path id="Fill_9" data-name="Fill 9" d="M0,11H10.58V0H0Z" transform="translate(-3617 14352.542)" fill="#cfe8ff"/>
    <path id="Stroke_10" data-name="Stroke 10" d="M0,11H10.58V0H0Z" transform="translate(-3617 14352.542)" fill="none" stroke="#231f20" stroke-linecap="round" stroke-linejoin="round" stroke-miterlimit="10" stroke-width="1"/>
    <path id="Fill_15" data-name="Fill 15" d="M0,6.1V1.543C0,.689.918,0,2.057,0S4.114.689,4.114,1.543V6.1Z" transform="translate(-3613.786 14366.364)" fill="#fff"/>
    <path id="Stroke_16" data-name="Stroke 16" d="M0,5.978V1.512C0,.676.918,0,2.057,0S4.114.676,4.114,1.512V5.978Z" transform="translate(-3613.786 14366.364)" fill="none" stroke="#231f20" stroke-linecap="round" stroke-linejoin="round" stroke-miterlimit="10" stroke-width="1"/>
    <path id="Fill_17" data-name="Fill 17" d="M0,8.335V1.624A1.877,1.877,0,0,1,2.057,0,1.88,1.88,0,0,1,4.114,1.624v6.71Z" transform="translate(-3613.786 14355.207)" fill="#fff"/>
    <path id="Stroke_18" data-name="Stroke 18" d="M0,8.335V1.624A1.877,1.877,0,0,1,2.057,0,1.88,1.88,0,0,1,4.114,1.624v6.71Z" transform="translate(-3613.786 14355.207)" fill="none" stroke="#231f20" stroke-linecap="round" stroke-linejoin="round" stroke-miterlimit="10" stroke-width="1"/>
    <path id="Stroke_20" data-name="Stroke 20" d="M0,37.72H10.723V0H0Z" transform="translate(-3584.894 14334.622)" fill="#cfe8ff" stroke="#231f20" stroke-linecap="round" stroke-linejoin="round" stroke-miterlimit="10" stroke-width="1"/>
    <path id="Fill_21" data-name="Fill 21" d="M10.723,10.523H0L3.293,0H7.427Z" transform="translate(-3584.894 14324.1)" fill="#ecefd6"/>
    <path id="Stroke_22" data-name="Stroke 22" d="M10.723,10.523H0L3.293,0H7.427Z" transform="translate(-3584.894 14324.1)" fill="#0d83ee" stroke="#231f20" stroke-linecap="round" stroke-linejoin="round" stroke-miterlimit="10" stroke-width="1"/>
    <path id="Fill_23" data-name="Fill 23" d="M0,3.255H4.151V0H0Z" transform="translate(-3581.609 14320.845)" fill="#0d83ee"/>
    <path id="Stroke_24" data-name="Stroke 24" d="M0,3.255H4.151V0H0Z" transform="translate(-3581.609 14320.845)" fill="none" stroke="#231f20" stroke-linecap="round" stroke-linejoin="round" stroke-miterlimit="10" stroke-width="1"/>
    <path id="Fill_25" data-name="Fill 25" d="M0,5.476V0" transform="translate(-3579.533 14315.368)" fill="#fff"/>
    <path id="Stroke_26" data-name="Stroke 26" d="M0,5.476V0" transform="translate(-3579.533 14315.368)" fill="none" stroke="#231f20" stroke-linecap="round" stroke-linejoin="round" stroke-miterlimit="10" stroke-width="1"/>
    <path id="Stroke_29" data-name="Stroke 29" d="M0,5.752H3.676V0H0Z" transform="translate(-3581.609 14366.476)" fill="#fff" stroke="#231f20" stroke-miterlimit="10" stroke-width="1"/>
    <path id="Fill_30" data-name="Fill 30" d="M4.1,6.1V1.544C4.1.687,3.185,0,2.049,0S0,.687,0,1.544V6.1Z" transform="translate(-3581.608 14345.88)" fill="#fff"/>
    <path id="Stroke_31" data-name="Stroke 31" d="M4.1,6.1V1.544C4.1.687,3.185,0,2.049,0S0,.687,0,1.544V6.1Z" transform="translate(-3581.608 14345.88)" fill="none" stroke="#231f20" stroke-linecap="round" stroke-linejoin="round" stroke-miterlimit="10" stroke-width="1"/>
    <path id="Fill_32" data-name="Fill 32" d="M0,11.157H10.723V0H0Z" transform="translate(-3584.92 14351.978)" fill="#cfe8ff"/>
    <path id="Stroke_33" data-name="Stroke 33" d="M0,11.157H10.723V0H0Z" transform="translate(-3584.92 14351.978)" fill="none" stroke="#231f20" stroke-linecap="round" stroke-linejoin="round" stroke-miterlimit="10" stroke-width="1"/>
    <path id="Fill_34" data-name="Fill 34" d="M4.1,7.924V1.541C4.1.687,3.185,0,2.049,0S0,.687,0,1.541V7.924Z" transform="translate(-3581.608 14355.211)" fill="#fff"/>
    <path id="Stroke_35" data-name="Stroke 35" d="M4.1,7.924V1.541C4.1.687,3.185,0,2.049,0S0,.687,0,1.541V7.924Z" transform="translate(-3581.608 14355.211)" fill="none" stroke="#231f20" stroke-linecap="round" stroke-linejoin="round" stroke-miterlimit="10" stroke-width="1"/>
    <path id="Fill_36" data-name="Fill 36" d="M3.761,2.066A1.978,1.978,0,0,1,1.883,4.131,1.98,1.98,0,0,1,0,2.066,1.979,1.979,0,0,1,1.883,0,1.977,1.977,0,0,1,3.761,2.066" transform="translate(-3581.438 14338.377)" fill="#fff"/>
    <path id="Stroke_37" data-name="Stroke 37" d="M3.761,2.066A1.978,1.978,0,0,1,1.883,4.131,1.98,1.98,0,0,1,0,2.066,1.979,1.979,0,0,1,1.883,0,1.977,1.977,0,0,1,3.761,2.066Z" transform="translate(-3581.438 14338.377)" fill="none" stroke="#231f20" stroke-linecap="round" stroke-linejoin="round" stroke-miterlimit="10" stroke-width="1"/>
    <path id="Fill_38" data-name="Fill 38" d="M0,20.486H10.75V0H0Z" transform="translate(-3552.763 14351.979)" fill="#fff"/>
    <path id="Fill_40" data-name="Fill 40" d="M0,8.786H10.75L7.447,0H3.3Z" transform="translate(-3552.763 14343.193)" fill="#0d83ee"/>
    <path id="Stroke_41" data-name="Stroke 41" d="M0,8.786H10.75L7.447,0H3.3Z" transform="translate(-3552.763 14343.193)" fill="none" stroke="#231f20" stroke-linecap="round" stroke-linejoin="round" stroke-miterlimit="10" stroke-width="1"/>
    <path id="Fill_42" data-name="Fill 42" d="M0,3.255H4.18V0H0Z" transform="translate(-3549.478 14339.938)" fill="#ecefd6"/>
    <path id="Stroke_43" data-name="Stroke 43" d="M0,3.255H4.18V0H0Z" transform="translate(-3549.478 14339.938)" fill="#0d83ee" stroke="#231f20" stroke-linecap="round" stroke-linejoin="round" stroke-miterlimit="10" stroke-width="1"/>
    <path id="Fill_44" data-name="Fill 44" d="M0,11.156H10.75V0H0Z" transform="translate(-3552.763 14351.979)" fill="#cfe8ff"/>
    <path id="Stroke_45" data-name="Stroke 45" d="M0,11.156H10.75V0H0Z" transform="translate(-3552.763 14351.979)" fill="#cfe8ff" stroke="#231f20" stroke-linecap="round" stroke-linejoin="round" stroke-miterlimit="10" stroke-width="1"/>
    <path id="Stroke_47" data-name="Stroke 47" d="M0,9.208H10.75V0H0Z" transform="translate(-3552.763 14363.135)" fill="#cfe8ff" stroke="#231f20" stroke-linecap="round" stroke-linejoin="round" stroke-miterlimit="10" stroke-width="1"/>
    <path id="Stroke_49" data-name="Stroke 49" d="M4.112,5.978V1.512C4.112.676,3.194,0,2.055,0S0,.676,0,1.512V5.978H4.112Z" transform="translate(-3549.445 14366.364)" fill="#fff" stroke="#231f20" stroke-linecap="round" stroke-linejoin="round" stroke-miterlimit="10" stroke-width="1"/>
    <path id="Fill_50" data-name="Fill 50" d="M4.112,7.928V1.545C4.112.691,3.194,0,2.055,0S0,.691,0,1.545V7.928Z" transform="translate(-3549.445 14355.207)" fill="#fff"/>
    <path id="Stroke_51" data-name="Stroke 51" d="M4.112,7.928V1.545C4.112.691,3.194,0,2.055,0S0,.691,0,1.545V7.928Z" transform="translate(-3549.445 14355.207)" fill="none" stroke="#231f20" stroke-linecap="round" stroke-linejoin="round" stroke-miterlimit="10" stroke-width="1"/>
    <g id="Stroke_53" data-name="Stroke 53" transform="translate(-3573.922 14351.979)">
      <path id="Stroke_53-2" data-name="Stroke 53" d="M0,20.364H21.159V0H0Z" transform="translate(0 0)" fill="#cfe8ff" stroke="#231f20" stroke-linecap="round" stroke-linejoin="round" stroke-miterlimit="10" stroke-width="1"/>
      <path id="Stroke_53-3" data-name="Stroke 53" d="M0,20.364H21.159V0H0Z" transform="translate(0 0)" fill="#cfe8ff"/>
    </g>
    <path id="Fill_54" data-name="Fill 54" d="M0,4.666H21.433V0H0Z" transform="translate(-3574.196 14351.98)" fill="#0d83ee"/>
    <path id="Stroke_55" data-name="Stroke 55" d="M0,4.666H21.433V0H0Z" transform="translate(-3574.196 14351.98)" fill="none" stroke="#231f20" stroke-linecap="round" stroke-linejoin="round" stroke-miterlimit="10" stroke-width="1"/>
    <path id="Fill_58" data-name="Fill 58" d="M0,7.493H21.433V0H0Z" transform="translate(-3574.196 14356.646)" fill="#cfe8ff"/>
    <path id="Stroke_59" data-name="Stroke 59" d="M0,7.493H21.433V0H0Z" transform="translate(-3574.196 14356.646)" fill="none" stroke="#231f20" stroke-linecap="round" stroke-linejoin="round" stroke-miterlimit="10" stroke-width="1"/>
    <path id="Fill_60" data-name="Fill 60" d="M4.6,1.177h0Z" transform="translate(-3570.193 14367.197)" fill="#be664d"/>
    <path id="Stroke_61" data-name="Stroke 61" d="M0,4.4H4.6V0H0Z" transform="translate(-3570.052 14367.942)" fill="#fff" stroke="#231f20" stroke-miterlimit="10" stroke-width="1"/>
    <path id="Fill_62" data-name="Fill 62" d="M4.549,5V1.369C4.549.614,3.531,0,2.273,0S0,.614,0,1.369V5Z" transform="translate(-3570.167 14359.137)" fill="#fff"/>
    <path id="Stroke_63" data-name="Stroke 63" d="M4.549,5V1.369C4.549.614,3.531,0,2.273,0S0,.614,0,1.369V5Z" transform="translate(-3570.167 14359.137)" fill="none" stroke="#231f20" stroke-linecap="round" stroke-linejoin="round" stroke-miterlimit="10" stroke-width="1"/>
    <path id="Fill_64" data-name="Fill 64" d="M4.6,1.177h0Z" transform="translate(-3561.41 14367.196)" fill="#be664d"/>
    <path id="Stroke_65" data-name="Stroke 65" d="M0,4.4H4.6V0H0Z" transform="translate(-3561.457 14367.942)" fill="#fff" stroke="#231f20" stroke-miterlimit="10" stroke-width="1"/>
    <path id="Fill_66" data-name="Fill 66" d="M4.551,5V1.369C4.551.614,3.531,0,2.276,0S0,.614,0,1.369V5Z" transform="translate(-3561.387 14359.135)" fill="#fff"/>
    <path id="Stroke_67" data-name="Stroke 67" d="M4.551,5V1.369C4.551.614,3.531,0,2.276,0S0,.614,0,1.369V5Z" transform="translate(-3561.387 14359.135)" fill="none" stroke="#231f20" stroke-linecap="round" stroke-linejoin="round" stroke-miterlimit="10" stroke-width="1"/>
    <g id="Fill_68" data-name="Fill 68" transform="translate(-3606.356 14351.979)">
      <path id="Fill_68-2" data-name="Fill 68" d="M0,20.486H21.436V0H0Z" transform="translate(0 0)" fill="#cfe8ff"/>
      <path id="Fill_68-3" data-name="Fill 68" d="M0,20.486H21.436V0H0Z" transform="translate(0 0)" fill="#cfe8ff"/>
    </g>
    <path id="Stroke_69" data-name="Stroke 69" d="M0,20.364H21.433V0H0Z" transform="translate(-3606.354 14351.979)" fill="none" stroke="#231f20" stroke-linecap="round" stroke-linejoin="round" stroke-miterlimit="10" stroke-width="1"/>
    <path id="Fill_70" data-name="Fill 70" d="M0,4.666H21.436V0H0Z" transform="translate(-3606.356 14351.98)" fill="#ecefd6"/>
    <path id="Stroke_71" data-name="Stroke 71" d="M0,4.666H21.436V0H0Z" transform="translate(-3606.356 14351.98)" fill="#0d83ee" stroke="#231f20" stroke-linecap="round" stroke-linejoin="round" stroke-miterlimit="10" stroke-width="1"/>
    <path id="Fill_74" data-name="Fill 74" d="M0,7.493H21.436V0H0Z" transform="translate(-3606.356 14356.646)" fill="#cfe8ff"/>
    <path id="Stroke_75" data-name="Stroke 75" d="M0,7.493H21.436V0H0Z" transform="translate(-3606.356 14356.646)" fill="none" stroke="#231f20" stroke-linecap="round" stroke-linejoin="round" stroke-miterlimit="10" stroke-width="1"/>
    <path id="Stroke_77" data-name="Stroke 77" d="M0,4.09H4.6V0H0Z" transform="translate(-3593.309 14367.942)" fill="#fff" stroke="#231f20" stroke-miterlimit="10" stroke-width="1"/>
    <path id="Fill_78" data-name="Fill 78" d="M0,5V1.369C0,.614,1.018,0,2.276,0S4.553.614,4.553,1.369V5Z" transform="translate(-3593.5 14359.137)" fill="#fff"/>
    <path id="Stroke_79" data-name="Stroke 79" d="M0,5V1.369C0,.614,1.018,0,2.276,0S4.553.614,4.553,1.369V5Z" transform="translate(-3593.5 14359.137)" fill="none" stroke="#231f20" stroke-linecap="round" stroke-linejoin="round" stroke-miterlimit="10" stroke-width="1"/>
    <path id="Stroke_81" data-name="Stroke 81" d="M0,4.089H4.6V0H0Z" transform="translate(-3602.335 14367.942)" fill="#fff" stroke="#231f20" stroke-miterlimit="10" stroke-width="1"/>
    <path id="Fill_82" data-name="Fill 82" d="M0,5V1.369C0,.614,1.018,0,2.273,0S4.549.614,4.549,1.369V5Z" transform="translate(-3602.281 14359.135)" fill="#fff"/>
    <path id="Stroke_83" data-name="Stroke 83" d="M0,5V1.369C0,.614,1.018,0,2.273,0S4.549.614,4.549,1.369V5Z" transform="translate(-3602.281 14359.135)" fill="none" stroke="#231f20" stroke-linecap="round" stroke-linejoin="round" stroke-miterlimit="10" stroke-width="1"/>
  </g>
</svg>
