<svg xmlns="http://www.w3.org/2000/svg" width="44.968" height="58.708" viewBox="0 0 44.968 58.708">
  <g id="Group_3412" data-name="Group 3412" transform="translate(2961.5 -14333.5)">
    <path id="Fill_33" data-name="Fill 33" d="M0,21.3H13.74V0H0Z" transform="translate(-2932.146 14370.411)" fill="#cfe8ff"/>
    <path id="Stroke_3" data-name="Stroke 3" d="M27.7,13.74h0a6.979,6.979,0,0,0-7.1-6.854,6.976,6.976,0,0,0-7.089,6.854H0V0H41.22V13.74Z" transform="translate(-2959.626 14353.923)" fill="#cfe8ff" stroke="#231f20" stroke-linecap="round" stroke-linejoin="round" stroke-miterlimit="10" stroke-width="1"/>
    <path id="Fill_5" data-name="Fill 5" d="M29.038,5.839h4.625v5.84H0V5.839H4.627V2.3C7.049,2.251,11.52,2,13.4,1.064c.256-.127.487-.285.722-.431L14.14.622A5.2,5.2,0,0,1,16.834,0a5.208,5.208,0,0,1,2.692.622l.018.011c.235.146.466.3.722.431C22.143,2,26.615,2.251,29.038,2.3V5.839Z" transform="translate(-2955.504 14334)" fill="#cfe8ff"/>
    <path id="Stroke_7" data-name="Stroke 7" d="M29.038,5.839h4.625v5.84H0V5.839H4.627V2.3C7.049,2.251,11.52,2,13.4,1.064c.256-.127.487-.285.722-.431L14.14.622A5.2,5.2,0,0,1,16.834,0a5.208,5.208,0,0,1,2.692.622l.018.011c.235.146.466.3.722.431C22.143,2,26.615,2.251,29.038,2.3V5.839Z" transform="translate(-2955.504 14334)" fill="none" stroke="#231f20" stroke-linecap="round" stroke-linejoin="round" stroke-miterlimit="10" stroke-width="1"/>
    <path id="Fill_9" data-name="Fill 9" d="M4.122,2.062A2.061,2.061,0,1,1,2.063,0,2.062,2.062,0,0,1,4.122,2.062" transform="translate(-2953.443 14358.045)" fill="#0d83ee"/>
    <path id="Stroke_11" data-name="Stroke 11" d="M4.122,2.062A2.061,2.061,0,1,1,2.063,0,2.062,2.062,0,0,1,4.122,2.062Z" transform="translate(-2953.443 14358.045)" fill="none" stroke="#231f20" stroke-linecap="round" stroke-linejoin="round" stroke-miterlimit="10" stroke-width="1"/>
    <path id="Fill_13" data-name="Fill 13" d="M4.122,2.062A2.061,2.061,0,1,1,2.061,0,2.062,2.062,0,0,1,4.122,2.062" transform="translate(-2929.398 14358.045)" fill="#eac591"/>
    <path id="Stroke_15" data-name="Stroke 15" d="M4.122,2.062A2.061,2.061,0,1,1,2.061,0,2.062,2.062,0,0,1,4.122,2.062Z" transform="translate(-2929.398 14358.045)" fill="#0d83ee" stroke="#231f20" stroke-linecap="round" stroke-linejoin="round" stroke-miterlimit="10" stroke-width="1"/>
    <path id="Fill_17" data-name="Fill 17" d="M41.22,3.093a.993.993,0,0,1-.955,1.029H.954A.992.992,0,0,1,0,3.093V1.03A.994.994,0,0,1,.954,0H40.265a1,1,0,0,1,.955,1.03Z" transform="translate(-2959.626 14345.679)" fill="#0d83ee"/>
    <path id="Stroke_19" data-name="Stroke 19" d="M41.22,3.093a.993.993,0,0,1-.955,1.029H.954A.992.992,0,0,1,0,3.093V1.03A.994.994,0,0,1,.954,0H40.265a1,1,0,0,1,.955,1.03Z" transform="translate(-2959.626 14345.679)" fill="none" stroke="#231f20" stroke-linecap="round" stroke-linejoin="round" stroke-miterlimit="10" stroke-width="1"/>
    <path id="Fill_21" data-name="Fill 21" d="M43.968,3.76a1,1,0,0,1-.945,1.048H.947A1,1,0,0,1,0,3.76V1.048A1,1,0,0,1,.947,0H43.023a1,1,0,0,1,.945,1.048Z" transform="translate(-2961 14349.114)" fill="#0d83ee"/>
    <path id="Stroke_23" data-name="Stroke 23" d="M43.968,3.76a1,1,0,0,1-.945,1.048H.947A1,1,0,0,1,0,3.76V1.048A1,1,0,0,1,.947,0H43.023a1,1,0,0,1,.945,1.048Z" transform="translate(-2961 14349.114)" fill="none" stroke="#231f20" stroke-linecap="round" stroke-linejoin="round" stroke-miterlimit="10" stroke-width="1"/>
    <path id="Fill_25" data-name="Fill 25" d="M16.488,1.9a.9.9,0,0,1-.939.844H.941A.9.9,0,0,1,0,1.9V.841A.9.9,0,0,1,.941,0H15.549a.9.9,0,0,1,.939.841Z" transform="translate(-2961 14367.663)" fill="#eac591"/>
    <path id="Stroke_27" data-name="Stroke 27" d="M16.488,1.9a.9.9,0,0,1-.939.844H.941A.9.9,0,0,1,0,1.9V.841A.9.9,0,0,1,.941,0H15.549a.9.9,0,0,1,.939.841Z" transform="translate(-2961 14367.663)" fill="#0d83ee" stroke="#231f20" stroke-linecap="round" stroke-linejoin="round" stroke-miterlimit="10" stroke-width="1"/>
    <path id="Fill_29" data-name="Fill 29" d="M16.488,1.9a.893.893,0,0,1-.938.844H.936A.893.893,0,0,1,0,1.9V.841A.893.893,0,0,1,.936,0H15.55a.893.893,0,0,1,.938.841Z" transform="translate(-2933.52 14367.663)" fill="#eac591"/>
    <path id="Stroke_31" data-name="Stroke 31" d="M16.488,1.9a.893.893,0,0,1-.938.844H.936A.893.893,0,0,1,0,1.9V.841A.893.893,0,0,1,.936,0H15.55a.893.893,0,0,1,.938.841Z" transform="translate(-2933.52 14367.663)" fill="#0d83ee" stroke="#231f20" stroke-linecap="round" stroke-linejoin="round" stroke-miterlimit="10" stroke-width="1"/>
    <path id="Stroke_35" data-name="Stroke 35" d="M0,21.3H13.74V0H0Z" transform="translate(-2932.146 14370.411)" fill="none" stroke="#231f20" stroke-linecap="round" stroke-linejoin="round" stroke-miterlimit="10" stroke-width="1"/>
    <path id="Fill_36" data-name="Fill 36" d="M0,21.3H13.74V0H0Z" transform="translate(-2959.626 14370.411)" fill="#cfe8ff"/>
    <path id="Stroke_37" data-name="Stroke 37" d="M0,21.3H13.74V0H0Z" transform="translate(-2959.626 14370.411)" fill="none" stroke="#231f20" stroke-linecap="round" stroke-linejoin="round" stroke-miterlimit="10" stroke-width="1"/>
    <path id="Stroke_39" data-name="Stroke 39" d="M13.674,9.964h-.648a.925.925,0,0,1-.919-.932V7.857a1.077,1.077,0,0,1,.919-1.089h.713A6.786,6.786,0,0,0,6.851,0,6.756,6.756,0,0,0,0,6.768H.679A1.079,1.079,0,0,1,1.6,7.857V9.032a.927.927,0,0,1-.923.932H0V30.915H13.674Z" transform="translate(-2945.886 14360.793)" fill="#0d83ee" stroke="#231f20" stroke-linecap="round" stroke-linejoin="round" stroke-miterlimit="10" stroke-width="1"/>
    <path id="Fill_40" data-name="Fill 40" d="M0,0H40.533" transform="translate(-2959.626 14391.021)" fill="#fff"/>
  </g>
</svg>
