<svg xmlns="http://www.w3.org/2000/svg" width="40.791" height="58.462" viewBox="0 0 40.791 58.462">
  <g id="Group_4425" data-name="Group 4425" transform="translate(2026.5 236.254)">
    <path id="Stroke_3" data-name="Stroke 3" d="M0,12.465a49.739,49.739,0,0,1,11.884-1.353,49.51,49.51,0,0,1,11.872,1.352V5.644l0-.023-.162-2.245s-.014-.319.015-.8A24.991,24.991,0,0,0,11.875,0,25,25,0,0,0,.159,2.567c.031.484.018.809.018.809L.017,5.621,0,5.8H0v6.67Z" transform="translate(-2017.685 -207.393)" fill="#cfe8ff" stroke="#231f20" stroke-linecap="round" stroke-linejoin="round" stroke-miterlimit="10" stroke-width="1"/>
    <path id="Stroke_7" data-name="Stroke 7" d="M9.819,13.66H.337L.006,10.17S-.383,3.518,5.08,0c5.459,3.518,5.007,10.222,5.007,10.222Z" transform="translate(-2011.746 -232.931)" fill="#0d83ee" stroke="#231f20" stroke-miterlimit="10" stroke-width="1"/>
    <path id="Stroke_11" data-name="Stroke 11" d="M0,2.711V0" transform="translate(-2006.763 -235.754)" fill="none" stroke="#231f20" stroke-linecap="round" stroke-linejoin="round" stroke-miterlimit="10" stroke-width="1"/>
    <path id="Stroke_15" data-name="Stroke 15" d="M9.5,3.841l-.011-.154L9.33,1.7A7.7,7.7,0,0,1,9.473,0H.014a7.618,7.618,0,0,1,.14,1.7L0,3.687v6.4a32.217,32.217,0,0,1,4.713-.343A31.834,31.834,0,0,1,9.5,10.1V3.841Z" transform="translate(-2011.152 -219.271)" fill="#cfe8ff" stroke="#231f20" stroke-linecap="round" stroke-linejoin="round" stroke-miterlimit="10" stroke-width="1"/>
    <path id="Stroke_19" data-name="Stroke 19" d="M1.483,7.092c.5,0,1,.016,1.487.035V1.395A1.444,1.444,0,0,0,1.483,0,1.442,1.442,0,0,0,0,1.395V7.127C.492,7.108.982,7.092,1.483,7.092Z" transform="translate(-2007.589 -216.895)" fill="#0d83ee" stroke="#231f20" stroke-miterlimit="10" stroke-width="1"/>
    <path id="Stroke_23" data-name="Stroke 23" d="M0,1.782V0" transform="translate(-2014.716 -225.804)" fill="none" stroke="#231f20" stroke-linecap="round" stroke-linejoin="round" stroke-miterlimit="10" stroke-width="1"/>
    <path id="Stroke_27" data-name="Stroke 27" d="M6.949,4.551h.016A6.677,6.677,0,0,0,3.587,0,6.908,6.908,0,0,0,0,6.19L.237,8.315h6.7l.013-.151.172-1.942a6.545,6.545,0,0,0-.156-1.67Z" transform="translate(-2018.279 -224.022)" fill="#0d83ee" stroke="#231f20" stroke-miterlimit="10" stroke-width="1"/>
    <path id="Fill_29" data-name="Fill 29" d="M6.533,6.527V0H0V8.315A24.669,24.669,0,0,1,6.533,6.527" transform="translate(-2017.685 -215.708)" fill="#cfe8ff"/>
    <path id="Stroke_31" data-name="Stroke 31" d="M6.533,6.527V0H0V8.315A24.669,24.669,0,0,1,6.533,6.527Z" transform="translate(-2017.685 -215.708)" fill="none" stroke="#231f20" stroke-miterlimit="10" stroke-width="1"/>
    <path id="Stroke_35" data-name="Stroke 35" d="M1.782,4.894V.858A.877.877,0,0,0,.891,0,.875.875,0,0,0,0,.858V5.345Q.848,5.1,1.782,4.894Z" transform="translate(-2015.31 -213.926)" fill="#0d83ee" stroke="#231f20" stroke-miterlimit="10" stroke-width="1"/>
    <path id="Fill_37" data-name="Fill 37" d="M0,1.954V0" transform="translate(-1998.263 -226.925)" fill="#fff"/>
    <path id="Stroke_39" data-name="Stroke 39" d="M0,1.954V0" transform="translate(-1998.087 -225.804)" fill="none" stroke="#231f20" stroke-linecap="round" stroke-linejoin="round" stroke-miterlimit="10" stroke-width="1"/>
    <path id="Stroke_43" data-name="Stroke 43" d="M.182,4.551H.164A6.689,6.689,0,0,1,3.543,0,6.914,6.914,0,0,1,7.123,6.19L6.89,8.315H.194L.182,8.164,0,6.222a6.62,6.62,0,0,1,.16-1.67Z" transform="translate(-2001.65 -224.022)" fill="#0d83ee" stroke="#231f20" stroke-miterlimit="10" stroke-width="1"/>
    <path id="Stroke_47" data-name="Stroke 47" d="M0,6.527V0H7.127V8.315A28.816,28.816,0,0,0,0,6.527Z" transform="translate(-2001.65 -215.708)" fill="#cfe8ff" stroke="#231f20" stroke-miterlimit="10" stroke-width="1"/>
    <path id="Stroke_51" data-name="Stroke 51" d="M0,4.894V.858A.873.873,0,0,1,.888,0a.876.876,0,0,1,.893.858V5.345C1.215,5.179.622,5.028,0,4.894Z" transform="translate(-1999.275 -213.926)" fill="#0d83ee" stroke="#231f20" stroke-miterlimit="10" stroke-width="1"/>
    <path id="Stroke_55" data-name="Stroke 55" d="M0,2.2V0" transform="translate(-1991.021 -212.82)" fill="none" stroke="#231f20" stroke-linecap="round" stroke-linejoin="round" stroke-miterlimit="10" stroke-width="1"/>
    <path id="Stroke_59" data-name="Stroke 59" d="M.164,4.551H.148A6.682,6.682,0,0,1,3.246,0,7.129,7.129,0,0,1,6.529,6.189L6.316,8.315H.175L.164,8.164.006,6.223A6.947,6.947,0,0,1,.148,4.551Z" transform="translate(-1994.523 -210.363)" fill="#0d83ee" stroke="#231f20" stroke-miterlimit="10" stroke-width="1"/>
    <path id="Stroke_63" data-name="Stroke 63" d="M5.96,8.088c.189.077.394.148.573.227V0H0V6.151A28.865,28.865,0,0,1,5.96,8.088Z" transform="translate(-1994.523 -202.048)" fill="#cfe8ff" stroke="#231f20" stroke-miterlimit="10" stroke-width="1"/>
    <path id="Stroke_67" data-name="Stroke 67" d="M1.782,5.345V.871A.882.882,0,0,0,.89,0,.88.88,0,0,0,0,.871v3.9C.626,4.949,1.217,5.141,1.782,5.345Z" transform="translate(-1992.148 -200.266)" fill="#0d83ee" stroke="#231f20" stroke-miterlimit="10" stroke-width="1"/>
    <path id="Stroke_71" data-name="Stroke 71" d="M11.578,0A25.648,25.648,0,0,0,0,2.4V4.175c.007.047.022.1.03.142A8.111,8.111,0,0,1,.155,5.338,25.894,25.894,0,0,1,11.578,3.009,25.879,25.879,0,0,1,23.017,5.345a8.22,8.22,0,0,1,.127-1.029c0-.023.013-.05.018-.075V2.4A25.684,25.684,0,0,0,11.578,0Z" transform="translate(-2017.685 -209.769)" fill="#0d83ee" stroke="#231f20" stroke-linecap="round" stroke-linejoin="round" stroke-miterlimit="10" stroke-width="1"/>
    <path id="Stroke_75" data-name="Stroke 75" d="M0,2.2V0" transform="translate(-2021.002 -212.82)" fill="none" stroke="#231f20" stroke-linecap="round" stroke-linejoin="round" stroke-miterlimit="10" stroke-width="1"/>
    <path id="Stroke_79" data-name="Stroke 79" d="M6.37,4.551h.014A6.687,6.687,0,0,0,3.287,0,7.129,7.129,0,0,0,0,6.189L.216,8.315h6.14l.014-.151.157-1.941a7.086,7.086,0,0,0-.143-1.672Z" transform="translate(-2024.218 -210.363)" fill="#0d83ee" stroke="#231f20" stroke-miterlimit="10" stroke-width="1"/>
    <path id="Stroke_83" data-name="Stroke 83" d="M6.533,6.151V0H0V8.315c.181-.079.389-.152.579-.229A28.982,28.982,0,0,1,6.533,6.151Z" transform="translate(-2024.218 -202.048)" fill="#cfe8ff" stroke="#231f20" stroke-miterlimit="10" stroke-width="1"/>
    <path id="Stroke_87" data-name="Stroke 87" d="M1.782,4.769V.871A.881.881,0,0,0,.89,0,.882.882,0,0,0,0,.871V5.345Q.843,5.039,1.782,4.769Z" transform="translate(-2021.843 -200.266)" fill="#0d83ee" stroke="#231f20" stroke-miterlimit="10" stroke-width="1"/>
    <path id="Stroke_95" data-name="Stroke 95" d="M36.822,3.518C32.919,1.4,26.165,0,18.482,0,10.7,0,3.878,1.438,0,3.6V16.035H36.822Z" transform="translate(-2024.218 -194.327)" fill="#cfe8ff" stroke="#231f20" stroke-linecap="round" stroke-linejoin="round" stroke-miterlimit="10" stroke-width="1"/>
    <path id="Stroke_99" data-name="Stroke 99" d="M2.969,5.939V1.369A1.43,1.43,0,0,0,1.483,0,1.427,1.427,0,0,0,0,1.369V5.661Q1.524,5.776,2.969,5.939Z" transform="translate(-2001.056 -202.048)" fill="#0d83ee" stroke="#231f20" stroke-miterlimit="10" stroke-width="1"/>
    <path id="Stroke_103" data-name="Stroke 103" d="M1.493,7.111c.5,0,.988.007,1.477.016V1.447A1.467,1.467,0,0,0,1.482,0,1.465,1.465,0,0,0,0,1.447V7.127C.5,7.118.992,7.111,1.493,7.111Z" transform="translate(-2007.589 -203.236)" fill="#0d83ee" stroke="#231f20" stroke-miterlimit="10" stroke-width="1"/>
    <path id="Stroke_107" data-name="Stroke 107" d="M2.969,5.658V1.366A1.428,1.428,0,0,0,1.487,0,1.431,1.431,0,0,0,0,1.366V5.939Q1.445,5.768,2.969,5.658Z" transform="translate(-2013.528 -202.048)" fill="#0d83ee" stroke="#231f20" stroke-miterlimit="10" stroke-width="1"/>
    <path id="Stroke_91" data-name="Stroke 91" d="M0,7.721C3.327,5.107,10.977,3.279,19.894,3.279s16.573,1.828,19.9,4.442V4.439C36.466,1.828,28.814,0,19.894,0S3.327,1.828,0,4.439Z" transform="translate(-2026 -197.297)" fill="#cfe8ff" stroke="#231f20" stroke-linecap="round" stroke-linejoin="round" stroke-miterlimit="10" stroke-width="1"/>
    <path id="Stroke_111" data-name="Stroke 111" d="M2.078,0A2.07,2.07,0,0,0,0,2.062V8.315H4.157V2.062A2.072,2.072,0,0,0,2.078,0Z" transform="translate(-2008.183 -186.607)" fill="#0d83ee" stroke="#231f20" stroke-miterlimit="10" stroke-width="1"/>
    <path id="Stroke_115" data-name="Stroke 115" d="M2.08,0A2.072,2.072,0,0,0,0,2.062V8.315H4.157V2.062A2.07,2.07,0,0,0,2.08,0Z" transform="translate(-2015.31 -186.607)" fill="#0d83ee" stroke="#231f20" stroke-miterlimit="10" stroke-width="1"/>
    <path id="Stroke_119" data-name="Stroke 119" d="M2.078,0A2.071,2.071,0,0,0,0,2.062V8.315H4.157V2.062A2.07,2.07,0,0,0,2.078,0Z" transform="translate(-2021.843 -186.607)" fill="#0d83ee" stroke="#231f20" stroke-miterlimit="10" stroke-width="1"/>
    <path id="Stroke_123" data-name="Stroke 123" d="M2.079,0A2.071,2.071,0,0,0,0,2.062V8.315H4.157V2.062A2.07,2.07,0,0,0,2.079,0Z" transform="translate(-2001.65 -186.607)" fill="#0d83ee" stroke="#231f20" stroke-miterlimit="10" stroke-width="1"/>
    <path id="Stroke_127" data-name="Stroke 127" d="M2.077,0A2.07,2.07,0,0,0,0,2.062V8.315H4.157V2.062A2.073,2.073,0,0,0,2.077,0Z" transform="translate(-1994.523 -186.607)" fill="#0d83ee" stroke="#231f20" stroke-miterlimit="10" stroke-width="1"/>
  </g>
</svg>
