<svg xmlns="http://www.w3.org/2000/svg" width="90.392" height="58.708" viewBox="0 0 90.392 58.708">
  <g id="Group_3407" data-name="Group 3407" transform="translate(3297.5 -14319.5)">
    <path id="Stroke_2" data-name="Stroke 2" d="M0,43.443H29.24V0H0Z" transform="translate(-3297 14334.202)" fill="#cfe8ff" stroke="#231f20" stroke-linecap="round" stroke-linejoin="round" stroke-miterlimit="10" stroke-width="1"/>
    <path id="Stroke_5" data-name="Stroke 5" d="M0,9.19H29.24V0H0Z" transform="translate(-3297 14334.202)" fill="none" stroke="#231f20" stroke-linecap="round" stroke-linejoin="round" stroke-miterlimit="10" stroke-width="1"/>
    <path id="Stroke_8" data-name="Stroke 8" d="M0,9.19H9.19V0H0Z" transform="translate(-3297 14334.202)" fill="#0d83ee" stroke="#231f20" stroke-linecap="round" stroke-linejoin="round" stroke-miterlimit="10" stroke-width="1"/>
    <path id="Stroke_11" data-name="Stroke 11" d="M0,9.19H10.025V0H0Z" transform="translate(-3287.81 14334.202)" fill="#0d83ee" stroke="#231f20" stroke-linecap="round" stroke-linejoin="round" stroke-miterlimit="10" stroke-width="1"/>
    <path id="Stroke_13" data-name="Stroke 13" d="M0,9.19H10.025V0H0Z" transform="translate(-3277.785 14334.202)" fill="#0d83ee" stroke="#231f20" stroke-linecap="round" stroke-linejoin="round" stroke-miterlimit="10" stroke-width="1"/>
    <path id="Stroke_15" data-name="Stroke 15" d="M0,4.177V0" transform="translate(-3291.152 14347.569)" fill="none" stroke="#231f20" stroke-miterlimit="10" stroke-width="1"/>
    <path id="Stroke_17" data-name="Stroke 17" d="M0,4.177V0" transform="translate(-3285.304 14347.569)" fill="none" stroke="#231f20" stroke-miterlimit="10" stroke-width="1"/>
    <path id="Stroke_19" data-name="Stroke 19" d="M0,4.177V0" transform="translate(-3280.291 14347.569)" fill="none" stroke="#231f20" stroke-miterlimit="10" stroke-width="1"/>
    <path id="Stroke_21" data-name="Stroke 21" d="M0,4.177V0" transform="translate(-3274.443 14347.569)" fill="none" stroke="#231f20" stroke-miterlimit="10" stroke-width="1"/>
    <path id="Stroke_23" data-name="Stroke 23" d="M0,43.443H29.24V0H0Z" transform="translate(-3236.849 14334.202)" fill="#cfe8ff" stroke="#231f20" stroke-linecap="round" stroke-linejoin="round" stroke-miterlimit="10" stroke-width="1"/>
    <path id="Stroke_26" data-name="Stroke 26" d="M0,9.19H29.24V0H0Z" transform="translate(-3236.849 14334.202)" fill="none" stroke="#231f20" stroke-linecap="round" stroke-linejoin="round" stroke-miterlimit="10" stroke-width="1"/>
    <path id="Stroke_29" data-name="Stroke 29" d="M0,9.19H10.025V0H0Z" transform="translate(-3217.634 14334.202)" fill="#0d83ee" stroke="#231f20" stroke-linecap="round" stroke-linejoin="round" stroke-miterlimit="10" stroke-width="1"/>
    <path id="Stroke_32" data-name="Stroke 32" d="M0,9.19H9.19V0H0Z" transform="translate(-3226.823 14334.202)" fill="#0d83ee" stroke="#231f20" stroke-linecap="round" stroke-linejoin="round" stroke-miterlimit="10" stroke-width="1"/>
    <path id="Stroke_34" data-name="Stroke 34" d="M0,9.19H10.025V0H0Z" transform="translate(-3236.849 14334.202)" fill="#0d83ee" stroke="#231f20" stroke-linecap="round" stroke-linejoin="round" stroke-miterlimit="10" stroke-width="1"/>
    <path id="Stroke_36" data-name="Stroke 36" d="M0,4.177V0" transform="translate(-3214.292 14347.569)" fill="none" stroke="#231f20" stroke-miterlimit="10" stroke-width="1"/>
    <path id="Stroke_38" data-name="Stroke 38" d="M0,4.177V0" transform="translate(-3219.305 14347.569)" fill="none" stroke="#231f20" stroke-miterlimit="10" stroke-width="1"/>
    <path id="Stroke_40" data-name="Stroke 40" d="M0,4.177V0" transform="translate(-3225.153 14347.569)" fill="none" stroke="#231f20" stroke-miterlimit="10" stroke-width="1"/>
    <path id="Stroke_42" data-name="Stroke 42" d="M0,4.177V0" transform="translate(-3230.165 14347.569)" fill="none" stroke="#231f20" stroke-miterlimit="10" stroke-width="1"/>
    <path id="Stroke_44" data-name="Stroke 44" d="M37.452,0H2.651L0,5.848H40.1Z" transform="translate(-3272.772 14320)" fill="#cfe8ff" stroke="#231f20" stroke-linecap="round" stroke-linejoin="round" stroke-miterlimit="10" stroke-width="1"/>
    <path id="Stroke_47" data-name="Stroke 47" d="M34.253,8.34V0H0V8.34H1.63V51.8H32.564l0-34.051V8.34Z" transform="translate(-3269.431 14325.848)" fill="#cfe8ff" stroke="#231f20" stroke-linecap="round" stroke-linejoin="round" stroke-miterlimit="10" stroke-width="1"/>
    <path id="Stroke_50" data-name="Stroke 50" d="M6.711,8.378H8.354V0H0V10.861H6.711Z" transform="translate(-3243.532 14325.848)" fill="#0d83ee" stroke="#231f20" stroke-linecap="round" stroke-linejoin="round" stroke-miterlimit="10" stroke-width="1"/>
    <path id="Stroke_52" data-name="Stroke 52" d="M0,6.683H30.911V0H0Z" transform="translate(-3267.76 14336.709)" fill="none" stroke="#231f20" stroke-linecap="round" stroke-linejoin="round" stroke-miterlimit="10" stroke-width="1"/>
    <path id="Stroke_56" data-name="Stroke 56" d="M0,10.861H8.354V0H0Z" transform="translate(-3261.076 14325.848)" fill="#0d83ee" stroke="#231f20" stroke-miterlimit="10" stroke-width="1"/>
    <path id="Stroke_58" data-name="Stroke 58" d="M0,0V8.378H1.59v2.482H8.354V0Z" transform="translate(-3269.431 14325.848)" fill="#0d83ee" stroke="#231f20" stroke-linecap="round" stroke-linejoin="round" stroke-miterlimit="10" stroke-width="1"/>
    <path id="Stroke_60" data-name="Stroke 60" d="M0,10.861H9.19V0H0Z" transform="translate(-3252.722 14325.848)" fill="#0d83ee" stroke="#231f20" stroke-miterlimit="10" stroke-width="1"/>
    <path id="Stroke_62" data-name="Stroke 62" d="M0,5.013V0" transform="translate(-3261.076 14347.569)" fill="none" stroke="#231f20" stroke-miterlimit="10" stroke-width="1"/>
    <path id="Stroke_64" data-name="Stroke 64" d="M0,5.013V0" transform="translate(-3255.228 14347.569)" fill="none" stroke="#231f20" stroke-miterlimit="10" stroke-width="1"/>
    <path id="Stroke_66" data-name="Stroke 66" d="M0,5.013V0" transform="translate(-3250.216 14347.569)" fill="none" stroke="#231f20" stroke-miterlimit="10" stroke-width="1"/>
    <path id="Stroke_68" data-name="Stroke 68" d="M0,5.013V0" transform="translate(-3244.368 14347.569)" fill="none" stroke="#231f20" stroke-miterlimit="10" stroke-width="1"/>
    <path id="Stroke_71" data-name="Stroke 71" d="M15.92,9.726C16.123,1.612,7.961,0,7.961,0S-.2,1.612,0,9.726V21.784H15.922Z" transform="translate(-3260.241 14355.924)" fill="#0d83ee" stroke="#231f20" stroke-linecap="round" stroke-linejoin="round" stroke-miterlimit="10" stroke-width="1"/>
  </g>
</svg>
